<svg xmlns="http://www.w3.org/2000/svg" width="34.294" height="33.886" viewBox="0 0 34.294 33.886">
  <g id="Group_26" data-name="Group 26" transform="translate(-228.25 -724.42)">
    <path id="Path_67" data-name="Path 67" d="M262.544,741.74a14.1,14.1,0,0,0-.369-3.464H245.747v6.287h9.643a8.244,8.244,0,0,1-3.577,5.5l-.033.211,5.194,3.9.36.035A16.305,16.305,0,0,0,262.544,741.74Z" fill="#4285f4"/>
    <path id="Path_68" data-name="Path 68" d="M245.746,758.306a17,17,0,0,0,11.587-4.1l-5.522-4.142a10.882,10.882,0,0,1-16.019-5.346l-.206.017-5.4,4.047-.07.19A17.549,17.549,0,0,0,245.746,758.306Z" fill="#34a853"/>
    <path id="Path_69" data-name="Path 69" d="M235.793,744.714a10.116,10.116,0,0,1-.583-3.351,10.643,10.643,0,0,1,.563-3.351l-.01-.224-5.468-4.113-.179.083a16.432,16.432,0,0,0,0,15.211Z" fill="#fbbc05"/>
    <path id="Path_70" data-name="Path 70" d="M245.746,730.972a9.866,9.866,0,0,1,6.765,2.522l4.938-4.668a17.111,17.111,0,0,0-11.7-4.406,17.549,17.549,0,0,0-15.631,9.338l5.657,4.254A10.549,10.549,0,0,1,245.746,730.972Z" fill="#eb4335"/>
  </g>
</svg>
